<svg id="图层_1" data-name="图层 1" xmlns="http://www.w3.org/2000/svg" viewBox="0 0 595.28 841.89"><defs><style>.cls-1{fill:none;stroke:#000;stroke-miterlimit:10;}</style></defs><path class="cls-1" d="M161.13,54.42s-8.44-46.56,36.09-48c44.53,0,34.69,48,34.69,48s5.62-3.4,7,0-.47,11.64-2.82,13.58-.46,11.15-2.81,12.61-5.62,0-5.62,0-3.82,20-9.61,20c0,0,2.58,15.93,3.51,18.84,1.69,5.16,20.47,9.32,24.79,10.82,8.54,3,18.43,3.4,26,8.82,8.29,5.91,11.24,19,13.86,28.38,3.93,14.06,6.26,28.67,8.73,43.07q1.88,11,3.6,22.07c1.37,8.71,3.68,15.71,9.38,22.63,14.6,17.7,12.72,46.89,29.38,63.06,7.5,7.28,11.36,6.88,14.49,8,0,0,3.66-1.08,5.74,1.34s7,6.75,9.91,7.56,3.92,2.7,6,2.43,2.61,5.41-5.21,5.41c0,0-6.52-4.33-9.92-2.44,0,0-1.56,2.16.27,6.48s15.39,20,13.56,22.4-5.22.27-9.91-4.32-7.31,0-6.52,2.7,9.13,16.2,4.43,19.71-12.52-22.14-12.52-22.14,8.09,20,7,21.33-2.34,5.59-8.34-4.05c-3.92-9.45-5.74-19.71-9.14-15.39-1.18,3,.11,7.56-1.56,14.58-3.39,6.47-6.52-7.29-6-14.58s0-8.43-1.52-10.41-7.31-15-6.9-19.41c.31-3.42-5.76-9.64-7.52-12.09-5.69-7.91-11.62-15.63-17.49-23.39s-12-15.75-17.7-23.82c-9.18-12.88-7.44-27.51-12.32-41.89-3.45-10.18-11.09-25.35-9.62-36.41-2,15-5.21,29.79-6.09,44.93-.79,13.55,1.7,25.81,4.5,38.91,4.73,22.2,10.22,44.79,12.57,67.43,0,.23,0,.47.07.7,1.37,15.14,1.36,30.52,1.19,45.71-.09,8.15-.26,16.34-1,24.46-.83,8.89-3.51,17.42-4.25,26.34-.53,6.39-2.22,15.06-.47,21.37-.47,3.84-.23,13.69,1.16,17.53s8.58,29.05,5.33,52.34-6.26,74.9-6.49,80.67,5.8,25.44,7.65,29,5.11,6.72,3.72,9.84c-.8,1.42,0,6.24-2.13,6.38-1.65.1,0,5.57-3.43,4.67a3,3,0,0,1-.49,2.57c-1.3,1.57-2.91.1-4.12.79s-.32,2.42-1.35,3.41c-1.53,1.47-3.62-.16-5-.93-.55,2.34.38,5.89-3.07,6.29-4.79.55-10.92-8.13-10.92-9.23s-5.32-5.65-5.06-10.74c.34-6.52,0-13.12-.08-19.65-.1-8.88,1.15-18.72-.7-27.39-2.37-11.11-2.14-25.33-.28-36.84.13-.83-3.39-23.41-6.76-31.54s-5.05-34.84-1.12-43.55c1.12-5.81,1.4-8.13-.29-17.13-.28-5.52-3.64-7.26-4.77-12.78S221,460.37,221,434c-1.41-18.59-7.3-48.78-9.55-60.69s-9.26-9.87-13.18-3.77-4.49,57.49-5.9,61.84-1.12,21.78-3.93,29-4.21,15.39-4.21,17.42a48.9,48.9,0,0,1-1.61,10.89c-1,4.29-5.18,10.82-3.8,15.14,1.52,4.75,2.77,9.24,2.61,14.33-.28,8.71-7,53.13-9.82,66.78a153.55,153.55,0,0,1,1.65,18.16c.17,7.1-4.11,13.38-4.49,20.43-.22,4.1.37,8.41.51,12.52.27,8,2.21,20-1,27.58-2.07,4.83-3.75,9.89-6.69,14.27-1.17,1.74-2.89,4.23-5.16,4.41-3.85.29-3.74-3.83-5.08-6.34-1,.69-1.89,2-3.14,2.24-2.06.46-3.17-1.17-3.88-2.83-.43-1,.37-1.22-.55-1.9-.68-.51-2.44.3-3.36-.16-3-1.54.11-6.13-2.4-8-1.17-.86-1.84.26-2.71-1.6-.53-1.14-.18-2.61-.66-3.8-.3-.73-1.18-1.16-1.46-2.17-.43-1.55.12-3.47.61-4.92,2.19-6.49,9.63-23.54,11.09-35.16s1.16-33.5.73-36.37-2.34-20.52-3.5-27.16-4.53-33,.29-46.93c3.5-15.09,5.68-21.27,5.68-25.35s2.63-34.86-2.62-44.67-6.86-60.05-7.29-64.43-1.32-47.83,3.94-68.81c3.79-15.17,9.89-28.67,9.55-44.48-.17-7.93-.55-15.86-1-23.78s-1.05-16-2-23.94c-.47-4.15-.41-10.81-3-14.11-.3-.4-2.29,8.26-2.42,8.81q-2.3,10-4.51,20.08c-1.28,5.83-2.81,11.69-3.74,17.59-1.08,6.83-.26,14.77-3.71,21-6.69,12.05-13.52,24-20.79,35.71-6.6,10.62-12.31,23.57-20.4,33-7.3,8.5-3.8,6.29-4.72,13.37S82.05,364,77.33,371c-1.21,2.68-2.73,22.29-6.83,19.3S73.07,369.53,67,371.9s-5.63,24.39-11.26,19.67c-2.89-3.78,3.2-18.26,1.52-20.46s-7.91,22.19-12.47,17.47,5.93-14.32,6.08-20.93-13,11.42-15.51,8.81c-3.73-3.73,11.6-19.82,17.23-26.59s-12.45-1.43-18.49-2.53,2-5.45,6.71-6.86c3.45-1,5.81-4.87,8.78-6.8,5.71-3.72,14.89-.18,18.63-7.59,11-21.87,10.43-50.24,24.32-70.44,2-2.89,4.27-5.6,5.93-8.71a47,47,0,0,0,3.88-11.79,269.56,269.56,0,0,0,7.09-55.28c.15-10.23,5-33.68,27.08-44.23s43.81-8.66,41.68-33c0,0-6.7-6.61-9.74-19,0,0-3.41,2.14-5.11-2.75s-1.51-9.18-3.59-11.72-10.19-15-1.32-14.65S161.13,54.42,161.13,54.42Z"/></svg>